<svg width="1280" height="360" viewBox="0 0 1280 360" fill="none" xmlns="http://www.w3.org/2000/svg" role="img" aria-labelledby="title desc">
  <title id="title">G. Karthik Koundinya profile banner</title>
  <desc id="desc">Dark profile banner for AI and backend engineering work.</desc>
  <defs>
    <linearGradient id="bg" x1="0" y1="0" x2="1280" y2="360" gradientUnits="userSpaceOnUse">
      <stop stop-color="#050505"/>
      <stop offset="0.55" stop-color="#0B1220"/>
      <stop offset="1" stop-color="#111827"/>
    </linearGradient>
    <linearGradient id="line" x1="180" y1="260" x2="1100" y2="70" gradientUnits="userSpaceOnUse">
      <stop stop-color="#38BDF8"/>
      <stop offset="0.5" stop-color="#A78BFA"/>
      <stop offset="1" stop-color="#34D399"/>
    </linearGradient>
    <filter id="blur" x="-30%" y="-30%" width="160%" height="160%">
      <feGaussianBlur stdDeviation="28"/>
    </filter>
  </defs>
  <rect width="1280" height="360" rx="28" fill="url(#bg)"/>
  <circle cx="1060" cy="110" r="110" fill="#1D4ED8" opacity="0.18" filter="url(#blur)"/>
  <circle cx="960" cy="250" r="90" fill="#059669" opacity="0.16" filter="url(#blur)"/>
  <path d="M118 266 C268 114 386 274 518 154 C650 34 790 292 958 116 C1018 54 1080 46 1162 78" stroke="url(#line)" stroke-width="3" stroke-linecap="round"/>
  <g opacity="0.18">
    <path d="M102 74H1178" stroke="#FFFFFF"/>
    <path d="M102 286H1178" stroke="#FFFFFF"/>
    <path d="M210 52V310" stroke="#FFFFFF"/>
    <path d="M1070 52V310" stroke="#FFFFFF"/>
  </g>
  <text x="96" y="128" fill="#F8FAFC" font-family="Inter, Segoe UI, Arial, sans-serif" font-size="54" font-weight="760" letter-spacing="0">G. Karthik Koundinya</text>
  <text x="98" y="172" fill="#CBD5E1" font-family="Inter, Segoe UI, Arial, sans-serif" font-size="24" font-weight="500">AI Engineer · Applied AI Engineer · Backend Engineer</text>
  <text x="98" y="224" fill="#E2E8F0" font-family="Inter, Segoe UI, Arial, sans-serif" font-size="22" font-weight="500">LLM systems · Retrieval · Agents · APIs · Evaluation · Reliability</text>
  <g transform="translate(98 258)">
    <rect width="170" height="38" rx="19" fill="#F8FAFC" opacity="0.08" stroke="#E2E8F0" stroke-opacity="0.18"/>
    <text x="22" y="25" fill="#F8FAFC" font-family="Inter, Segoe UI, Arial, sans-serif" font-size="15" font-weight="650">CodeChef #6 IN</text>
  </g>
  <g transform="translate(286 258)">
    <rect width="170" height="38" rx="19" fill="#F8FAFC" opacity="0.08" stroke="#E2E8F0" stroke-opacity="0.18"/>
    <text x="22" y="25" fill="#F8FAFC" font-family="Inter, Segoe UI, Arial, sans-serif" font-size="15" font-weight="650">LeetCode Guardian</text>
  </g>
  <g transform="translate(474 258)">
    <rect width="182" height="38" rx="19" fill="#F8FAFC" opacity="0.08" stroke="#E2E8F0" stroke-opacity="0.18"/>
    <text x="22" y="25" fill="#F8FAFC" font-family="Inter, Segoe UI, Arial, sans-serif" font-size="15" font-weight="650">Open Source: 21 PRs</text>
  </g>
</svg>
