<svg width="1280" height="360" viewBox="0 0 1280 360" fill="none" xmlns="http://www.w3.org/2000/svg" role="img" aria-labelledby="title desc">
  <title id="title">G. Karthik Koundinya profile banner</title>
  <desc id="desc">Light profile banner for AI and backend engineering work.</desc>
  <defs>
    <linearGradient id="bg" x1="0" y1="0" x2="1280" y2="360" gradientUnits="userSpaceOnUse">
      <stop stop-color="#FFFFFF"/>
      <stop offset="0.58" stop-color="#F8FAFC"/>
      <stop offset="1" stop-color="#EEF2FF"/>
    </linearGradient>
    <linearGradient id="line" x1="180" y1="260" x2="1100" y2="70" gradientUnits="userSpaceOnUse">
      <stop stop-color="#0284C7"/>
      <stop offset="0.5" stop-color="#7C3AED"/>
      <stop offset="1" stop-color="#059669"/>
    </linearGradient>
    <filter id="blur" x="-30%" y="-30%" width="160%" height="160%">
      <feGaussianBlur stdDeviation="28"/>
    </filter>
  </defs>
  <rect width="1280" height="360" rx="28" fill="url(#bg)"/>
  <rect x="1" y="1" width="1278" height="358" rx="27" stroke="#CBD5E1"/>
  <circle cx="1060" cy="110" r="110" fill="#60A5FA" opacity="0.24" filter="url(#blur)"/>
  <circle cx="960" cy="250" r="90" fill="#34D399" opacity="0.2" filter="url(#blur)"/>
  <path d="M118 266 C268 114 386 274 518 154 C650 34 790 292 958 116 C1018 54 1080 46 1162 78" stroke="url(#line)" stroke-width="3" stroke-linecap="round"/>
  <g opacity="0.55">
    <path d="M102 74H1178" stroke="#E2E8F0"/>
    <path d="M102 286H1178" stroke="#E2E8F0"/>
    <path d="M210 52V310" stroke="#E2E8F0"/>
    <path d="M1070 52V310" stroke="#E2E8F0"/>
  </g>
  <text x="96" y="128" fill="#0F172A" font-family="Inter, Segoe UI, Arial, sans-serif" font-size="54" font-weight="760" letter-spacing="0">G. Karthik Koundinya</text>
  <text x="98" y="172" fill="#334155" font-family="Inter, Segoe UI, Arial, sans-serif" font-size="24" font-weight="500">AI Engineer · Applied AI Engineer · Backend Engineer</text>
  <text x="98" y="224" fill="#1E293B" font-family="Inter, Segoe UI, Arial, sans-serif" font-size="22" font-weight="500">LLM systems · Retrieval · Agents · APIs · Evaluation · Reliability</text>
  <g transform="translate(98 258)">
    <rect width="170" height="38" rx="19" fill="#FFFFFF" stroke="#CBD5E1"/>
    <text x="22" y="25" fill="#0F172A" font-family="Inter, Segoe UI, Arial, sans-serif" font-size="15" font-weight="650">CodeChef #6 IN</text>
  </g>
  <g transform="translate(286 258)">
    <rect width="170" height="38" rx="19" fill="#FFFFFF" stroke="#CBD5E1"/>
    <text x="22" y="25" fill="#0F172A" font-family="Inter, Segoe UI, Arial, sans-serif" font-size="15" font-weight="650">LeetCode Guardian</text>
  </g>
  <g transform="translate(474 258)">
    <rect width="182" height="38" rx="19" fill="#FFFFFF" stroke="#CBD5E1"/>
    <text x="22" y="25" fill="#0F172A" font-family="Inter, Segoe UI, Arial, sans-serif" font-size="15" font-weight="650">Open Source: 21 PRs</text>
  </g>
</svg>
